<svg width="574" height="295" viewBox="0 0 574 295" fill="none" xmlns="http://www.w3.org/2000/svg">
<path d="M214.38 190.932L195.21 190.934V291.926H223.162V242.461C223.162 239.667 223.015 236.874 222.722 234.096L219.875 207.057C219.582 204.276 219.276 201.497 218.957 198.719L218.482 194.588C218.243 192.504 216.478 190.931 214.38 190.932Z" fill="#3A5566"/>
<path d="M249.482 188.484C244.313 188.484 239.145 190.185 233.976 193.586C231.211 195.454 228.651 197.815 226.296 200.668L228.88 222.131L228.586 222.584C230.186 220.465 231.906 218.72 233.773 217.455C237.99 214.599 242.069 213.172 246.013 213.172C248.19 213.172 250.025 213.306 251.521 213.578C253.153 213.85 254.854 214.259 256.623 214.803L260.886 192.752C261.124 191.521 260.405 190.058 259.207 189.697C258.353 189.44 257.422 189.239 256.418 189.096C254.513 188.688 252.202 188.484 249.482 188.484Z" fill="#1D2B33"/>
<path d="M537.318 188.484C525.893 188.484 516.712 191.409 509.775 197.258C502.838 202.971 499.369 210.45 499.369 219.699C499.369 225.276 500.729 229.969 503.449 233.777C506.306 237.586 509.775 240.714 513.855 243.162C518.072 245.61 522.289 247.653 526.506 249.285C530.042 250.645 533.375 252.005 536.504 253.365C539.768 254.589 542.352 256.085 544.256 257.854C546.296 259.486 547.316 261.457 547.316 263.769C547.316 266.762 546.227 269.144 544.051 270.912C543.054 271.722 541.788 272.344 540.25 272.783L549.082 292.338C551.214 291.726 553.211 290.976 555.068 290.09C561.189 287.233 565.815 283.358 568.943 278.461C572.072 273.564 573.635 268.124 573.635 262.139C573.635 256.018 572.208 251.055 569.352 247.246C566.495 243.301 562.959 240.172 558.742 237.859C554.526 235.411 550.241 233.369 545.889 231.736C542.352 230.512 539.019 229.291 535.891 228.066C532.762 226.842 530.244 225.481 528.34 223.984C526.435 222.488 525.484 220.653 525.484 218.477C525.484 215.756 526.505 213.579 528.545 211.947C530.721 210.179 533.918 209.295 538.135 209.295C541.807 209.295 545.411 210.112 548.947 211.744C552.484 213.24 556.089 215.348 559.762 218.068L570.725 203.152C571.544 202.038 571.324 200.443 570.197 199.643C566.437 196.972 562.143 194.546 557.314 192.361C551.602 189.777 544.935 188.484 537.318 188.484Z" fill="#3A5566"/>
<path d="M506.92 262.752L494.27 280.297C499.302 284.377 505.286 287.778 512.223 290.498C519.296 293.082 526.165 294.375 532.83 294.375C535.839 294.375 538.681 294.21 541.359 293.879L533.239 275.432C532.779 274.388 531.48 273.51 530.346 273.389C526.623 272.991 523.274 271.971 520.385 270.707C516.032 268.803 511.545 266.152 506.92 262.752Z" fill="#1D2B33"/>
<path d="M18.7715 164L15.5059 190.934L0 192.156V212.967H13.875V256.018C13.875 267.443 16.4582 276.693 21.627 283.766C26.9317 290.839 35.7075 294.375 47.9492 294.375C52.4379 294.375 56.5169 293.967 60.1894 293.15C63.862 292.334 67.0589 291.517 69.7793 290.701L65.6191 271.797C65.4371 270.97 64.6513 270.559 63.8477 270.826C62.8536 271.157 61.7696 271.458 60.5957 271.729C58.8275 272.137 57.0612 272.34 55.293 272.34C51.0764 272.34 47.7452 271.047 45.2969 268.463C42.9846 265.743 41.8262 261.525 41.8262 255.812V220.82V212.967V190.934V185.244V167.09C41.826 165.383 40.4427 164 38.7363 164H18.7715Z" fill="#3A5566"/>
<path d="M49.5 190.934V212.967H66.5137V194.152C66.5138 192.375 65.0726 190.934 63.2949 190.934H49.5Z" fill="#1D2B33"/>
<path d="M337.623 188.484C330.686 188.484 324.565 190.047 319.26 193.176C316.386 194.84 313.637 196.694 311.016 198.736L313.219 217.82C317.016 215.213 316.006 215.862 317.016 215.213C319.872 213.309 323.339 212.355 327.42 212.355C332.044 212.355 335.447 213.851 337.623 216.844C339.799 219.836 340.887 225.141 340.887 232.758V291.926H368.838V229.084C368.838 216.434 366.322 206.506 361.289 199.297C356.392 192.088 348.505 188.484 337.623 188.484Z" fill="#3A5566"/>
<path d="M311.016 198.736L312.919 215.22C313.019 216.092 313.054 216.39 313.219 217.82C318.06 214.227 322.348 212.307 327.42 212.356C330.955 212.39 334.886 213.717 337.243 216.352C340.14 219.591 340.656 227.17 340.783 228.899C344.005 200.759 313.012 197.58 311.016 198.736Z" fill="#1D2B33"/>
<path d="M279.271 190.934V291.926H307.221V236.902C307.221 234.171 307.065 231.442 306.752 228.729L303.154 197.541L302.502 193.363C302.283 191.964 301.078 190.933 299.662 190.934H279.271Z" fill="#3A5566"/>
<path d="M88.1191 190.934V253.773C88.1191 266.423 90.6353 276.353 95.668 283.562C100.701 290.771 108.588 294.375 119.334 294.375C126.271 294.375 132.256 292.879 137.289 289.887C139.962 288.298 142.539 286.402 145.02 284.199L142.696 268.178C142.519 266.953 141.632 266.639 140.633 267.368C140.402 267.537 140.171 267.698 139.941 267.852C137.085 269.62 133.685 270.504 129.74 270.504C125.116 270.504 121.646 269.075 119.334 266.219C117.158 263.226 116.07 257.922 116.07 250.305V194.715C116.07 192.627 114.377 190.934 112.289 190.934H88.1191Z" fill="#3A5566"/>
<path d="M386 190.934V253.773C386 266.423 388.516 276.353 393.549 283.562C398.582 290.771 406.469 294.375 417.215 294.375C424.152 294.375 430.137 292.879 435.17 289.887C437.842 288.298 440.42 286.402 442.9 284.199L440.577 268.178C440.4 266.953 439.513 266.639 438.514 267.368C438.283 267.537 438.052 267.698 437.822 267.852C434.966 269.62 431.566 270.504 427.621 270.504C422.996 270.504 419.527 269.075 417.215 266.219C415.039 263.226 413.951 257.922 413.951 250.305V194.715C413.951 192.627 412.258 190.934 410.17 190.934H386Z" fill="#3A5566"/>
<path d="M148.918 190.934V249.967L152.783 283.27L154.02 291.926H176.871V194.338C176.87 192.457 175.345 190.933 173.465 190.934H148.918Z" fill="#3A5566"/>
<path d="M446.799 190.934V249.967L450.664 283.27L451.9 291.926H474.752V194.338C474.751 192.457 473.226 190.933 471.346 190.934H446.799Z" fill="#3A5566"/>
<path d="M116.297 256V263.051C116.297 280.433 132.491 295.584 145.019 284.347L142.696 268.325C142.696 268.325 142.51 266.366 140.633 267.516C138.757 268.666 134.68 270.788 129.74 270.652C128.204 270.61 122.811 270.738 119.334 266.367C117.259 263.759 116.297 256 116.297 256Z" fill="#1D2B33"/>
<path d="M414.178 256V263.051C414.178 280.433 430.372 295.584 442.9 284.347L440.577 268.325C440.577 268.325 440.391 266.366 438.514 267.516C436.638 268.666 432.56 270.788 427.621 270.652C426.085 270.61 420.692 270.738 417.215 266.367C415.14 263.759 414.178 256 414.178 256Z" fill="#1D2B33"/>
<path d="M210 30C210 13.4315 223.431 0 240 0H283.892V73.8924H210V30Z" fill="#3A5566"/>
<path d="M364 30C364 13.4315 350.569 0 334 0H290.108V73.8924H364V30Z" fill="#A1AFBA"/>
<path d="M364 124C364 140.569 350.569 154 334 154H290.108V80.1076H364V124Z" fill="#A1AFBA"/>
<path d="M210 124C210 140.569 223.431 154 240 154H283.892V80.1076H210V124Z" fill="#A1AFBA"/>
</svg>
